<?xml version="1.0" encoding="UTF-8"?>
<svg version="1.1" xmlns="http://www.w3.org/2000/svg" width="187" height="173">
<path d="M0 0 C15.84 0 31.68 0 48 0 C64.82616438 35.58320008 64.82616438 35.58320008 72.1875 51.375 C72.47032837 51.98172546 72.75315674 52.58845093 73.04455566 53.21356201 C74.74818083 56.86890958 76.45067999 60.52478082 78.15289307 64.18078613 C80.72508181 69.70471853 83.29960943 75.22755978 85.875 80.75 C86.15946991 81.36018982 86.44393982 81.97037964 86.73703003 82.59906006 C90.51550284 90.70247737 94.31329688 98.79655514 98.12913513 106.88244629 C100.83725113 112.62142663 103.53560092 118.36494038 106.22926331 124.11071777 C108.2230357 128.3594263 110.24082664 132.59594668 112.26953125 136.828125 C113.20115382 138.80178467 114.13219319 140.77571979 115.0625 142.75 C115.4862793 143.61818359 115.91005859 144.48636719 116.34667969 145.38085938 C118.49041853 149.98069451 119.73656053 152.98099956 118 158 C116.80260609 160.52693344 115.44063669 162.91731558 114 165.3125 C113.63132812 165.94478516 113.26265625 166.57707031 112.8828125 167.22851562 C110.1945211 171.8054789 110.1945211 171.8054789 109 173 C106.85441173 173.08775605 104.70595579 173.10695219 102.55859375 173.09765625 C101.25341797 173.09443359 99.94824219 173.09121094 98.60351562 173.08789062 C97.2148431 173.07953401 95.82617123 173.07106905 94.4375 173.0625 C93.04492344 173.05748666 91.65234519 173.05292347 90.25976562 173.04882812 C86.8398013 173.03699434 83.41992156 173.0205088 80 173 C74.49200832 162.09129731 69.14508542 151.11758279 63.9375 140.0625 C63.57316864 139.29065369 63.20883728 138.51880737 62.83346558 137.72357178 C57.3336814 126.06729503 51.95614573 114.36014607 46.65432739 102.61273193 C41.51970221 91.24402534 36.23131663 79.95333353 30.875 68.6875 C30.49345764 67.88493774 30.11191528 67.08237549 29.71881104 66.25549316 C29.33996765 65.45865112 28.96112427 64.66180908 28.57080078 63.84082031 C27.8166885 62.25457786 27.06261903 60.66831506 26.30859375 59.08203125 C25.94102966 58.3087851 25.57346558 57.53553894 25.19476318 56.73886108 C19.71352786 45.1978003 14.33304827 33.61026 9 22 C8.53142578 20.98035156 8.06285156 19.96070312 7.58007812 18.91015625 C6.27706858 16.06756237 4.98054686 13.22213743 3.6875 10.375 C3.30779053 9.54468262 2.92808105 8.71436523 2.53686523 7.85888672 C0 2.2341629 0 2.2341629 0 0 Z " fill="#5389FF" transform="translate(0,0)"/>
<path d="M0 0 C14.85 0 29.7 0 45 0 C43.00742982 5.97771055 40.96977996 11.67137362 38.453125 17.41015625 C37.95168976 18.56601479 37.95168976 18.56601479 37.44012451 19.745224 C36.38030314 22.18587951 35.31525104 24.62421022 34.25 27.0625 C33.55173817 28.66846976 32.85381923 30.27458865 32.15625 31.88085938 C27.78915478 41.92858127 23.39126926 51.96281312 19 62 C3.16 62 -12.68 62 -29 62 C-25.62788991 51.88366972 -25.62788991 51.88366972 -23.46875 47.6796875 C-22.99300537 46.74302246 -22.51726074 45.80635742 -22.02709961 44.84130859 C-21.52315674 43.86242676 -21.01921387 42.88354492 -20.5 41.875 C-19.42664439 39.76129987 -18.35507686 37.64669094 -17.28515625 35.53125 C-16.74133301 34.45617188 -16.19750977 33.38109375 -15.63720703 32.2734375 C-12.52631001 26.05349905 -9.54958883 19.76968706 -6.56640625 13.48779297 C-6.14101562 12.59205566 -5.715625 11.69631836 -5.27734375 10.7734375 C-4.72421509 9.60433838 -4.72421509 9.60433838 -4.15991211 8.41162109 C-2.80410644 5.59270962 -1.39889034 2.79778068 0 0 Z " fill="#2C2C2C" transform="translate(142,0)"/>
<path d="M0 0 C14.19 0 28.38 0 43 0 C39 11 39 11 38 12 C35.55169574 12.08843793 33.13179401 12.11528752 30.68359375 12.09765625 C29.95253922 12.0962413 29.22148468 12.09482635 28.46827698 12.09336853 C26.12464368 12.08775408 23.78110461 12.07519922 21.4375 12.0625 C19.85221492 12.05748686 18.26692834 12.05292363 16.68164062 12.04882812 C12.7877239 12.03777997 8.89387795 12.02050572 5 12 C4.16180842 10.37750059 3.3295884 8.75191503 2.5 7.125 C2.0359375 6.22007813 1.571875 5.31515625 1.09375 4.3828125 C0 2 0 2 0 0 Z " fill="#2D2D2D" transform="translate(115,72)"/>
<path d="M0 0 C7.59 0 15.18 0 23 0 C21.69295074 3.26762314 20.40703591 6.30602869 18.8359375 9.42578125 C18.23652344 10.61977539 18.23652344 10.61977539 17.625 11.83789062 C17.2125 12.65451172 16.8 13.47113281 16.375 14.3125 C15.95476562 15.14845703 15.53453125 15.98441406 15.1015625 16.84570312 C14.06952169 18.898057 13.03561856 20.94944979 12 23 C11.34 23 10.68 23 10 23 C8.51480732 19.91953406 7.03791395 16.83515998 5.5625 13.75 C4.93118164 12.44095703 4.93118164 12.44095703 4.28710938 11.10546875 C3.88427734 10.26113281 3.48144531 9.41679688 3.06640625 8.546875 C2.69459229 7.77182617 2.32277832 6.99677734 1.93969727 6.19824219 C1 4 1 4 0 0 Z " fill="#2C2C2C" transform="translate(125,94)"/>
</svg>
