<?xml version="1.0" encoding="UTF-8"?>
<svg version="1.1" xmlns="http://www.w3.org/2000/svg" width="1316" height="254">
<path d="M0 0 C23.62182322 20.73153971 39.25703813 49.99280699 41.4609375 81.58203125 C43.10022942 116.82680757 31.06072348 147.56773042 7.4765625 173.59765625 C-14.35069716 196.38085429 -44.29959669 208.8359524 -75.66796875 209.55078125 C-105.21744534 209.85898961 -132.50507065 201.26075348 -155.4140625 182.26953125 C-156.26226563 181.5734375 -157.11046875 180.87734375 -157.984375 180.16015625 C-183.09399952 158.59264177 -195.84204471 128.80555629 -198.4140625 96.26953125 C-200.26847272 65.20816005 -188.80128481 34.50231993 -168.4140625 11.26953125 C-167.44339844 10.09970703 -167.44339844 10.09970703 -166.453125 8.90625 C-148.52173231 -12.28206911 -120.68810277 -26.13683485 -93.2734375 -29.453125 C-57.96825544 -31.99023829 -27.20796937 -22.88120061 0 0 Z M-132.4140625 27.26953125 C-133.0328125 27.77484375 -133.6515625 28.28015625 -134.2890625 28.80078125 C-144.58190467 38.14058248 -151.11568393 51.27509307 -155.4140625 64.26953125 C-155.92259766 65.73132813 -155.92259766 65.73132813 -156.44140625 67.22265625 C-162.6219526 88.527028 -158.97050074 112.51758767 -148.49609375 131.734375 C-145.88977742 136.28307779 -142.85275218 140.31957356 -139.4140625 144.26953125 C-138.74697266 145.14931641 -138.74697266 145.14931641 -138.06640625 146.046875 C-127.52220023 159.60371132 -108.5629807 169.27840893 -91.74560547 171.98828125 C-69.01868962 174.72978984 -48.97134332 170.42931438 -30.1640625 157.01953125 C-14.10265432 144.3540857 -1.70099935 124.9279633 1.35449219 104.4140625 C4.11672305 78.81972082 -0.97795245 56.28804527 -17.078125 36.01171875 C-30.11833184 20.70364985 -47.18659724 9.9229828 -67.4140625 7.26953125 C-92.11205034 5.4197513 -113.16933432 11.40563369 -132.4140625 27.26953125 Z " fill="#2C2C2C" transform="translate(829.4140625,37.73046875)"/>
<path d="M0 0 C110.94236239 0 110.94236239 0 134.13671875 22.88671875 C147.24905894 36.63119051 153.43639588 55.33176532 153.3125 74.125 C153.30686035 75.03588379 153.3012207 75.94676758 153.29541016 76.88525391 C152.96248943 95.69692334 147.94058049 112.29423245 136 127 C134.88625 128.546875 134.88625 128.546875 133.75 130.125 C130.08038654 133.96141408 125.92795912 136.94125775 121.64453125 140.046875 C119.0082491 141.89261077 119.0082491 141.89261077 117 144 C123.04297886 154.20956265 129.14863103 164.35649512 135.64404297 174.28540039 C140.31906515 181.44687242 144.83913282 188.70276471 149.36010742 195.9621582 C152.37331247 200.7992365 155.39295423 205.63138809 158.44921875 210.44140625 C158.98683838 211.28783691 159.52445801 212.13426758 160.07836914 213.00634766 C161.06890593 214.56337455 162.06140123 216.11915828 163.05639648 217.67333984 C165.37094218 221.31351547 167.57731731 224.98440709 169.66162109 228.76196289 C170.10234955 229.5594545 170.543078 230.35694611 170.99716187 231.17860413 C171.32809845 231.77966476 171.65903503 232.3807254 172 233 C133.30642313 236.45607838 133.30642313 236.45607838 123.73632812 231.21142578 C118.91444428 226.41700836 116.62856321 220.45317325 114.30224609 214.16064453 C112.08015147 208.76746174 108.73012759 204.16201474 105.4375 199.375 C104.17736827 197.45895811 102.92210718 195.53970355 101.671875 193.6171875 C101.06021484 192.68229492 100.44855469 191.74740234 99.81835938 190.78417969 C97.48236049 187.20741662 95.15554237 183.62485224 92.83984375 180.03491211 C91.74691833 178.35822112 90.6376937 176.69203145 89.51171875 175.03735352 C86.54219046 170.63985778 84.20044898 166.58199279 82.62792969 161.49536133 C81.01392403 158.28338678 81.01392403 158.28338678 75 153 C57.18 152.505 57.18 152.505 39 152 C39 178.73 39 205.46 39 233 C26.13 233 13.26 233 0 233 C0 156.11 0 79.22 0 0 Z M39 36 C39 62.4 39 88.8 39 116 C70.17772076 118.36382622 70.17772076 118.36382622 99 108 C99.86625 107.443125 100.7325 106.88625 101.625 106.3125 C109.69144913 98.45832584 113.49143215 87.37423379 114.25 76.375 C114.02929162 64.80988095 109.48726879 54.65469981 101.75 46.1875 C85.19852414 30.76370711 59.10014472 36 39 36 Z " fill="#2D2D2D" transform="translate(919,11)"/>
<path d="M0 0 C1.83959961 0.18261719 1.83959961 0.18261719 4 1 C5.34594727 3.15332031 5.34594727 3.15332031 6.56640625 6.078125 C7.04126465 7.19445312 7.51612305 8.31078125 8.00537109 9.4609375 C8.52457712 10.72389131 9.04361337 11.98691493 9.5625 13.25 C10.12700585 14.59174083 10.69297014 15.93286881 11.26025391 17.2734375 C12.51174146 20.23812147 13.75389553 23.2064986 14.98974609 26.17773438 C17.06455818 31.16278665 19.16501109 36.13680459 21.26953125 41.109375 C23.60980893 46.64118643 25.94902681 52.17342422 28.28100586 57.70874023 C34.69207896 72.92578147 41.14986161 88.12261922 47.625 103.3125 C48.11323242 104.45793274 48.60146484 105.60336548 49.10449219 106.7835083 C51.04136111 111.32749714 52.97828428 115.87146285 54.91540527 120.41534424 C60.93835712 134.54462433 66.9435841 148.68142832 72.94833374 162.81845093 C75.41879534 168.63393417 77.89254268 174.44801454 80.3671875 180.26171875 C84.24961779 189.38357864 88.12682035 198.50764389 91.99700928 207.63470459 C92.66680419 209.21424346 93.33676733 210.79371102 94.00689697 212.37310791 C95.90776165 216.85380871 97.80483462 221.33607518 99.69567871 225.8210144 C100.26859192 227.17856699 100.84270836 228.53561249 101.41809082 229.89212036 C102.2000901 231.7365407 102.97714346 233.58305574 103.75390625 235.4296875 C104.40854858 236.98018799 104.40854858 236.98018799 105.07641602 238.56201172 C106 241 106 241 106 243 C91.48 243 76.96 243 62 243 C55.07 225.51 48.14 208.02 41 190 C13.28 190 -14.44 190 -43 190 C-54.03697083 216.48468618 -54.03697083 216.48468618 -65 243 C-77.54 243 -90.08 243 -103 243 C-97.04332993 227.93763662 -90.80925077 213.01578532 -84.4375 198.125 C-83.4284639 195.7619056 -82.41968034 193.39870335 -81.41113281 191.03540039 C-79.31986545 186.13563219 -77.22754274 181.2363171 -75.13427734 176.33740234 C-70.16518803 164.70736926 -65.20700807 153.07268641 -60.25 141.4375 C-59.77053925 140.31232971 -59.29107849 139.18715942 -58.79708862 138.02789307 C-52.3361167 122.86392954 -45.90298858 107.68853208 -39.5 92.5 C-32.28335165 75.38160119 -25.02740641 58.28015857 -17.75 41.1875 C-17.01704712 39.46490967 -17.01704712 39.46490967 -16.26928711 37.70751953 C-10.9085835 25.11063692 -5.5253721 12.5256583 0 0 Z M-1 85 C-1.4218457 86.02955811 -1.84369141 87.05911621 -2.27832031 88.11987305 C-3.90327656 92.08538258 -5.52898169 96.05058483 -7.15478516 100.01574707 C-8.24821573 102.68314732 -9.34091255 105.35084739 -10.43359375 108.01855469 C-13.84254754 116.33659465 -17.26137347 124.64987598 -20.734375 132.94140625 C-21.29527756 134.28359742 -21.85615094 135.62580079 -22.41699219 136.96801758 C-23.45362157 139.44821862 -24.49696898 141.92523262 -25.54394531 144.40112305 C-26.00381836 145.50109619 -26.46369141 146.60106934 -26.9375 147.734375 C-27.33839844 148.68538086 -27.73929687 149.63638672 -28.15234375 150.61621094 C-29.16752006 153.04943291 -29.16752006 153.04943291 -29 156 C-10.19 156 8.62 156 28 156 C25.96935699 149.23118997 23.85517829 142.77430535 21.234375 136.25 C20.87788879 135.35240967 20.52140259 134.45481934 20.15411377 133.5300293 C19.02333567 130.68510434 17.88689685 127.84248454 16.75 125 C15.6325666 122.19548983 14.51633333 119.39050428 13.40026855 116.58544922 C12.66874063 114.74703919 11.93673106 112.90882075 11.20422363 111.07080078 C7.75183172 102.40025707 4.36620388 93.70431012 1 85 C0.34 85 -0.32 85 -1 85 Z " fill="#2D2D2D" transform="translate(304,1)"/>
<path d="M0 0 C1.32 0 2.64 0 4 0 C11.41096759 16.9500778 18.6930455 33.95166085 25.875 51 C33.02615796 67.97391847 40.21514713 84.93124676 47.4375 101.875 C47.92089844 103.00915344 48.40429688 104.14330688 48.90234375 105.31182861 C50.84690546 109.87401345 52.79161255 114.43613626 54.73660278 118.99813843 C59.62103032 130.45498126 64.49887956 141.91461955 69.375 153.375 C69.78293793 154.33376038 70.19087585 155.29252075 70.61117554 156.28033447 C73.0139044 161.92752814 75.4163168 167.57485635 77.81848145 173.22229004 C78.61004192 175.08322182 79.40162745 176.94414294 80.1932373 178.80505371 C82.51774465 184.26951386 84.84184521 189.73414668 87.16534424 195.19903564 C87.86929776 196.85463956 88.57335263 198.51020039 89.27752686 200.16571045 C89.6053717 200.9365094 89.93321655 201.70730835 90.27099609 202.50146484 C90.59300995 203.25821503 90.9150238 204.01496521 91.24679565 204.79464722 C91.87842972 206.2821931 92.50812724 207.77056294 93.13577271 209.25979614 C94.80493291 213.21691678 96.50873834 217.15451114 98.25976562 221.07617188 C98.63139832 221.92238098 99.00303101 222.76859009 99.38592529 223.64044189 C100.095561 225.25564484 100.81622292 226.86606839 101.55010986 228.47039795 C101.87098572 229.20752014 102.19186157 229.94464233 102.52246094 230.70410156 C102.80829041 231.34204651 103.09411987 231.97999146 103.38861084 232.63726807 C104 235 104 235 104 243 C90.47 243 76.94 243 63 243 C58.49787918 232.87022815 58.49787918 232.87022815 56.98535156 229.06274414 C56.6453009 228.20898697 56.30525024 227.3552298 55.95489502 226.4756012 C55.60368591 225.58775436 55.25247681 224.69990753 54.890625 223.78515625 C54.51895203 222.84820419 54.14727905 221.91125214 53.76434326 220.94590759 C52.98693031 218.98410372 52.21051405 217.02190462 51.43505859 215.05932617 C50.24314191 212.04515696 49.04553072 209.03329004 47.84765625 206.02148438 C47.0907995 204.10951206 46.33427691 202.19740743 45.578125 200.28515625 C45.03916595 198.93213158 45.03916595 198.93213158 44.48931885 197.55177307 C44.16187683 196.72008102 43.83443481 195.88838898 43.49707031 195.03149414 C43.20713196 194.29919083 42.9171936 193.56688751 42.61846924 192.81239319 C42 191 42 191 42 189 C13.95 189 -14.1 189 -43 189 C-43.99 191.97 -44.98 194.94 -46 198 C-46.63830755 199.68961001 -47.29368524 201.37302773 -47.97705078 203.04492188 C-48.33397003 203.92192749 -48.69088928 204.79893311 -49.05862427 205.70251465 C-49.43373138 206.61537231 -49.8088385 207.52822998 -50.1953125 208.46875 C-50.58822479 209.43026978 -50.98113708 210.39178955 -51.38595581 211.38244629 C-52.20982049 213.39649706 -53.03512712 215.40995854 -53.86181641 217.42285156 C-55.13206289 220.5172054 -56.39640026 223.61392805 -57.66015625 226.7109375 C-58.46319279 228.6720179 -59.266566 230.63296047 -60.0703125 232.59375 C-60.44946808 233.52280151 -60.82862366 234.45185303 -61.2192688 235.40905762 C-61.56988373 236.26084595 -61.92049866 237.11263428 -62.28173828 237.99023438 C-62.59023712 238.74252319 -62.89873596 239.49481201 -63.21658325 240.26989746 C-64 242 -64 242 -65 243 C-67.73894085 243.08858646 -70.4525327 243.11523479 -73.19140625 243.09765625 C-74.01124496 243.0962413 -74.83108368 243.09482635 -75.67576599 243.09336853 C-78.30471382 243.08775289 -80.93357773 243.07519779 -83.5625 243.0625 C-85.34049357 243.05748701 -87.11848846 243.05292376 -88.89648438 243.04882812 C-93.26435545 243.03777839 -97.63216348 243.02050331 -102 243 C-99.61419742 235.432909 -96.65710547 228.17591457 -93.5625 220.875 C-92.99882336 219.53841444 -92.43535424 218.20174135 -91.87207031 216.86499023 C-89.92117728 212.24058092 -87.96140193 207.61996029 -86 203 C-85.62840759 202.12470642 -85.25681519 201.24941284 -84.8739624 200.34759521 C-79.84595844 188.50710011 -74.80660375 176.67144649 -69.76419067 164.83708191 C-65.60776584 155.0813773 -61.45912534 145.32237312 -57.3125 135.5625 C-55.92058903 132.28645149 -54.52866352 129.01040915 -53.13671875 125.734375 C-52.79505676 124.93022156 -52.45339478 124.12606812 -52.10137939 123.29754639 C-49.67989921 117.59870938 -47.25632247 111.90076666 -44.83203125 106.203125 C-29.78891764 70.84389588 -14.83147066 35.44855471 0 0 Z M0 84 C-4.6536568 95.14319597 -9.29886747 106.2898888 -13.93548584 117.44018555 C-14.6397776 119.13378089 -15.34424267 120.82730417 -16.04888916 122.52075195 C-18.03909581 127.304192 -20.0255566 132.08915352 -22.00628662 136.87652588 C-22.62683596 138.37488185 -23.24862083 139.87272673 -23.87164307 141.37005615 C-24.73938385 143.45627703 -25.60268289 145.54428069 -26.46484375 147.6328125 C-26.955896 148.81762207 -27.44694824 150.00243164 -27.95288086 151.22314453 C-29.11761192 153.81727445 -29.11761192 153.81727445 -29 156 C-9.86 156 9.28 156 29 156 C19.94227808 131.88859939 10.51325264 107.93478729 1 84 C0.67 84 0.34 84 0 84 Z " fill="#2D2D2D" transform="translate(1212,1)"/>
<path d="M0 0 C15.18 0 30.36 0 46 0 C54.32304276 19.81701481 62.52411224 39.66854163 70.49609375 59.62890625 C71.10300993 61.14850512 71.10300993 61.14850512 71.72218704 62.69880295 C74.21071986 68.93231553 76.69553612 75.16730489 79.17901611 81.40283203 C82.53036344 89.81703972 85.88470116 98.23005116 89.24214363 106.64182854 C90.39125398 109.52275645 91.53808102 112.40458499 92.68467712 115.28651428 C97.31987141 126.91696731 102.09788923 138.47951567 107 150 C109.47335714 143.56927745 109.47335714 143.56927745 111.94670105 137.1385498 C114.12366271 131.47840896 116.30068154 125.81829012 118.4777832 120.15820312 C123.04743234 108.27774553 127.61646078 96.39705017 132.18359375 84.515625 C139.96310405 64.27819796 147.74620177 44.04214841 155.55288696 23.81518555 C156.3038453 21.86918565 157.05448081 19.92306114 157.80477905 17.97680664 C158.83111126 15.31488699 159.85871903 12.65346354 160.88671875 9.9921875 C161.18984985 9.20532562 161.49298096 8.41846375 161.80529785 7.60775757 C163.88550558 2.22898885 163.88550558 2.22898885 165 0 C179.85 0 194.7 0 210 0 C206.82196115 8.262901 203.60916563 16.43249991 200.10546875 24.55078125 C199.64532379 25.62256622 199.18517883 26.6943512 198.71109009 27.7986145 C197.20547128 31.30421239 195.6964716 34.80834417 194.1875 38.3125 C193.11818153 40.79997447 192.04966267 43.2877921 190.98120117 45.77563477 C189.04153299 50.29146167 187.10110277 54.80695952 185.15966129 59.32202435 C180.19933567 70.8582428 175.25393328 82.40084469 170.3092041 93.9437561 C167.8082361 99.78174484 165.30648314 105.61939715 162.8046875 111.45703125 C162.31653564 112.59611435 161.82838379 113.73519745 161.32543945 114.90879822 C158.09613727 122.44378052 154.86490728 129.97793397 151.6328125 137.51171875 C140.79522503 162.77663642 129.99651844 188.05785533 119.23591614 213.35565186 C118.34588434 215.44614023 117.45448234 217.53604588 116.56156921 219.62530518 C114.71681201 223.94390648 112.88252281 228.26417304 111.11669922 232.61572266 C110.842285 233.28340164 110.56787079 233.95108063 110.28514099 234.63899231 C109.59351186 236.32680803 108.91321476 238.01925602 108.23413086 239.7121582 C107 242 107 242 104 243 C92.90924495 218.58342888 82.52816728 193.85876013 72.04785156 169.17626953 C67.22671555 157.82273384 62.39539976 146.47353224 57.5625 135.125 C57.09106567 134.01791687 56.61963135 132.91083374 56.13391113 131.77020264 C48.75430753 114.44274258 41.35498863 97.12377615 33.9375 79.8125 C33.19960739 78.09028732 33.19960739 78.09028732 32.44680786 76.33328247 C26.84894902 63.27145831 21.23476013 50.21680183 15.59765625 37.171875 C15.08122055 35.97644577 14.56478485 34.78101654 14.03269958 33.54936218 C11.55829968 27.82249411 9.08169994 22.09659436 6.60131836 16.37231445 C5.72374782 14.34328237 4.84622239 12.31423078 3.96875 10.28515625 C3.56378799 9.35270081 3.15882599 8.42024536 2.74159241 7.45953369 C2.37762863 6.61703064 2.01366486 5.77452759 1.63867188 4.90649414 C1.32023315 4.1716127 1.00179443 3.43673126 0.67370605 2.67958069 C0 1 0 1 0 0 Z " fill="#2C2C2C" transform="translate(3,11)"/>
<path d="M0 0 C12.87 0 25.74 0 39 0 C39 65.01 39 130.02 39 197 C76.62 197 114.24 197 153 197 C153 208.88 153 220.76 153 233 C102.51 233 52.02 233 0 233 C0 156.11 0 79.22 0 0 Z " fill="#2C2C2C" transform="translate(449,11)"/>
</svg>
